<?xml version="1.0" standalone="no"?>
<!DOCTYPE svg PUBLIC "-//W3C//DTD SVG 20010904//EN"
 "http://www.w3.org/TR/2001/REC-SVG-20010904/DTD/svg10.dtd">
<svg version="1.0" xmlns="http://www.w3.org/2000/svg"
 width="162.000000pt" height="157.000000pt" viewBox="0 0 162.000000 157.000000"
 preserveAspectRatio="xMidYMid meet">
<metadata>
Created by potrace 1.10, written by Peter Selinger 2001-2011
</metadata>
<g transform="translate(0.000000,157.000000) scale(0.100000,-0.100000)"
fill="#000000" stroke="none">
<path d="M240 1373 c-21 -26 -21 -35 -18 -248 3 -253 7 -266 84 -311 43 -26
61 -31 106 -33 16 -1 17 -25 20 -272 l3 -271 24 -19 c29 -24 73 -24 94 -1 15
16 17 51 17 278 0 142 4 264 8 270 4 6 30 16 57 23 67 17 112 53 136 109 18
42 20 65 17 253 -3 187 -5 209 -22 228 -24 27 -70 27 -96 1 -19 -19 -20 -33
-20 -220 0 -190 -1 -201 -21 -221 -17 -17 -23 -19 -30 -8 -7 12 -9 11 -9 -1 0
-13 -1 -13 -10 0 -5 8 -10 106 -10 223 0 194 -1 208 -20 227 -25 25 -61 26
-91 1 -24 -19 -24 -22 -27 -240 -2 -130 -7 -221 -13 -221 -5 0 -9 5 -9 10 0 6
-5 10 -11 10 -5 0 -7 -4 -4 -10 3 -5 2 -10 -3 -10 -23 0 -30 58 -32 234 0 103
-5 197 -10 210 -17 44 -78 49 -110 9z m85 -3 c15 -17 18 -44 19 -224 2 -229 4
-236 67 -236 l39 0 0 222 c0 192 2 224 17 240 21 24 48 23 73 -2 19 -19 20
-33 20 -240 l0 -220 38 0 c21 0 43 5 50 12 9 9 12 72 12 220 0 195 1 209 20
228 25 25 41 25 69 2 22 -17 22 -22 19 -244 -3 -211 -4 -229 -24 -254 -35 -48
-70 -67 -129 -72 l-55 -4 0 -274 c0 -261 -1 -275 -20 -294 -24 -24 -47 -25
-72 -3 -17 15 -18 37 -18 295 l0 278 -46 0 c-51 0 -109 27 -136 65 -29 38 -34
91 -31 294 3 164 6 197 20 213 21 23 45 23 68 -2z"/>
<path d="M1150 1386 c-53 -17 -99 -45 -129 -75 -98 -103 -105 -130 -103 -399
1 -202 3 -216 24 -255 31 -56 76 -80 162 -86 l71 -6 5 -161 c4 -141 7 -165 24
-183 24 -26 57 -27 87 -2 l24 19 3 539 c1 296 0 548 -3 560 -14 58 -80 77
-165 49z m140 -23 c21 -26 21 -30 18 -569 -3 -514 -5 -544 -22 -563 -24 -27
-48 -27 -72 0 -17 19 -19 38 -18 190 l0 169 -79 0 c-97 0 -135 19 -167 85 -20
42 -21 56 -18 262 3 207 4 220 27 265 55 107 167 184 273 187 28 1 41 -5 58
-26z"/>
<path d="M1128 1237 c-24 -18 -53 -52 -65 -77 -22 -41 -23 -57 -23 -242 0
-192 1 -197 22 -212 14 -10 44 -16 78 -16 l55 0 2 290 c2 241 0 290 -12 290
-7 0 -33 -15 -57 -33z m52 -262 l0 -265 -49 0 c-80 0 -81 4 -81 204 0 103 5
187 11 207 21 62 71 115 112 118 4 1 7 -118 7 -264z"/>
</g>
</svg>
