<?xml version="1.0" encoding="UTF-8"?>
<svg version="1.1" xmlns="http://www.w3.org/2000/svg" width="162" height="157">
<path d="M0 0 C53.46 0 106.92 0 162 0 C162 51.81 162 103.62 162 157 C108.54 157 55.08 157 0 157 C0 105.19 0 53.38 0 0 Z " fill="#556078" transform="translate(0,0)"/>
<path d="M0 0 C2.08326575 1.60451899 2.9091666 2.49234883 3.37752342 5.10990906 C3.3786545 5.92917374 3.37978558 6.74843842 3.38095093 7.5925293 C3.39364014 9.00578995 3.39364014 9.00578995 3.40658569 10.44760132 C3.400513 11.47938507 3.39444031 12.51116882 3.38818359 13.57421875 C3.39344055 14.66223785 3.39869751 15.75025696 3.40411377 16.87124634 C3.4173449 20.47680917 3.40856438 24.08193248 3.3984375 27.6875 C3.40045733 30.18709396 3.40336801 32.68668736 3.40713501 35.1862793 C3.41156259 40.42859402 3.40539828 45.67079387 3.39111328 50.91308594 C3.37478641 56.97471749 3.38007486 63.03604634 3.3965925 69.09767056 C3.41184359 74.92774864 3.41023351 80.75771161 3.4014473 86.58779907 C3.39944201 89.06938723 3.401916 91.55098308 3.40888596 94.03256226 C3.41648073 97.4971786 3.40492329 100.96120872 3.38818359 104.42578125 C3.39729263 105.97345688 3.39729263 105.97345688 3.40658569 107.55239868 C3.39812622 108.49457245 3.38966675 109.43674622 3.38095093 110.4074707 C3.37981985 111.22673538 3.37868877 112.04600006 3.37752342 112.89009094 C2.90782598 115.51514368 2.13199967 116.43489127 0 118 C-3.34192692 117.75546876 -4.60543557 117.39456443 -7 115 C-7.17510386 112.34708243 -7.23155483 109.80013826 -7.1953125 107.1484375 C-7.1924826 106.37440582 -7.18965271 105.60037415 -7.18673706 104.80288696 C-7.17552754 102.32676843 -7.15042203 99.8510095 -7.125 97.375 C-7.11497118 95.69792188 -7.10584516 94.02083811 -7.09765625 92.34375 C-7.07558574 88.22902777 -7.04105102 84.11457489 -7 80 C-8.16990479 80.03697998 -9.33980957 80.07395996 -10.54516602 80.11206055 C-12.09389649 80.14196788 -13.64264457 80.17097313 -15.19140625 80.19921875 C-15.96085571 80.22592651 -16.73030518 80.25263428 -17.52307129 80.28015137 C-22.28668306 80.34530133 -25.13492136 79.99170509 -28.9375 76.8125 C-33.94486119 71.57701301 -34.30055235 66.19042159 -34.265625 59.296875 C-34.26753845 58.45964905 -34.2694519 57.6224231 -34.27142334 56.75982666 C-34.27278122 54.99141133 -34.26911253 53.22298589 -34.26074219 51.45458984 C-34.25009087 48.77287878 -34.26062296 46.09184585 -34.2734375 43.41015625 C-34.27211478 41.68489437 -34.26955008 39.95963292 -34.265625 38.234375 C-34.26967346 37.44343445 -34.27372192 36.6524939 -34.27789307 35.83758545 C-34.18497187 24.57690263 -31.34652308 16.34172987 -23.5 8.1875 C-17.01777718 2.02728825 -9.08347409 -1.60907255 0 0 Z " fill="#D2AD37" transform="translate(127,18)"/>
<path d="M0 0 C2.4375 0.8125 2.4375 0.8125 4.4375 2.8125 C4.70251465 4.6340332 4.70251465 4.6340332 4.72460938 6.86328125 C4.73802368 7.69754639 4.75143799 8.53181152 4.76525879 9.39135742 C4.77053589 10.29345947 4.77581299 11.19556152 4.78125 12.125 C4.7958728 13.04966064 4.81049561 13.97432129 4.82556152 14.92700195 C4.88798379 18.89357716 4.92747533 22.86031068 4.96923828 26.82714844 C5.00290005 29.71826743 5.04803184 32.60905069 5.09375 35.5 C5.0990271 36.40210205 5.1043042 37.3042041 5.10974121 38.23364258 C5.12315552 39.06790771 5.13656982 39.90217285 5.15039062 40.76171875 C5.15768188 41.49737061 5.16497314 42.23302246 5.17248535 42.9909668 C5.2884402 45.06206333 5.2884402 45.06206333 7.4375 46.8125 C10.09287372 47.37770003 12.72894713 47.55038198 15.4375 47.8125 C15.43083817 47.25539841 15.42417633 46.69829681 15.41731262 46.12431335 C15.35101434 40.3333411 15.3057225 34.54247639 15.27270508 28.7512207 C15.25760556 26.58906679 15.23712429 24.42694357 15.21118164 22.26489258 C15.17484983 19.159591 15.15778538 16.05469386 15.14453125 12.94921875 C15.12904739 11.98038254 15.11356354 11.01154633 15.09761047 10.01335144 C15.09738388 9.1126442 15.09715729 8.21193695 15.09692383 7.28393555 C15.09026199 6.49117722 15.08360016 5.69841888 15.07673645 4.88163757 C15.53316167 2.26383829 16.30370748 1.36190868 18.4375 -0.1875 C21.5 -0.0625 21.5 -0.0625 24.4375 0.8125 C26.52770153 3.94780229 26.6849595 4.6308177 26.66455078 8.19213867 C26.66439972 9.07282516 26.66424866 9.95351166 26.66409302 10.86088562 C26.65377045 11.80784805 26.64344788 12.75481049 26.6328125 13.73046875 C26.6299826 14.70284988 26.62715271 15.67523102 26.62423706 16.67707825 C26.61303599 19.78484366 26.58793148 22.89232159 26.5625 26 C26.55247011 28.10611563 26.54334427 30.21223578 26.53515625 32.31835938 C26.51309688 37.4831838 26.47856746 42.64779315 26.4375 47.8125 C27.736875 47.668125 29.03625 47.52375 30.375 47.375 C31.10589844 47.29378906 31.83679687 47.21257812 32.58984375 47.12890625 C34.44890229 46.99363386 34.44890229 46.99363386 35.4375 45.8125 C35.5484248 42.75834504 35.59916123 39.72299735 35.61328125 36.66796875 C35.63648207 34.77537953 35.66059951 32.88280137 35.68554688 30.99023438 C35.72066786 27.99463544 35.7500025 24.99944186 35.76342773 22.00366211 C35.77889191 19.12042633 35.81909682 16.23838864 35.86328125 13.35546875 C35.86137283 12.46055222 35.85946442 11.56563568 35.85749817 10.64360046 C35.97950196 4.4487511 35.97950196 4.4487511 38.30932617 1.2121582 C40.4375 -0.1875 40.4375 -0.1875 43.0625 -0.125 C45.4375 0.8125 45.4375 0.8125 47.4375 3.8125 C47.69819641 5.76533508 47.69819641 5.76533508 47.7121582 8.00512695 C47.72645622 9.26707634 47.72645622 9.26707634 47.74104309 10.55451965 C47.74013168 11.46078598 47.73922028 12.36705231 47.73828125 13.30078125 C47.74256638 14.2367363 47.7468515 15.17269135 47.75126648 16.13700867 C47.75701093 18.11826773 47.75750919 20.09954789 47.75317383 22.08081055 C47.75002286 25.10307152 47.77344028 28.1243451 47.79882812 31.14648438 C47.80110209 33.07291543 47.80180416 34.99934912 47.80078125 36.92578125 C47.809991 37.82597488 47.81920074 38.72616852 47.82868958 39.65364075 C47.7858404 45.5061725 47.04442245 49.95438971 42.9375 54.45703125 C38.75446779 57.71413185 36.0058998 58.95117246 30.75 58.875 C29.53763672 58.86146484 29.53763672 58.86146484 28.30078125 58.84765625 C27.68589844 58.83605469 27.07101563 58.82445312 26.4375 58.8125 C26.44638245 59.49266174 26.45526489 60.17282349 26.4644165 60.87359619 C26.55283918 67.94608159 26.61321351 75.01841025 26.65722656 82.09130859 C26.67735475 84.73167294 26.70465987 87.37199265 26.73925781 90.01220703 C26.7877205 93.80512501 26.8104572 97.59745416 26.828125 101.390625 C26.84877014 102.57303772 26.86941528 103.75545044 26.89068604 104.97369385 C26.89098816 106.07453308 26.89129028 107.17537231 26.89160156 108.30957031 C26.90048401 109.27775696 26.90936646 110.2459436 26.91851807 111.24346924 C26.29676559 114.5641371 25.08051813 115.7726982 22.4375 117.8125 C19.04595705 117.65099795 17.85453243 117.22953243 15.4375 114.8125 C15.19699097 112.4460144 15.19699097 112.4460144 15.21044922 109.44482422 C15.21060028 108.32381317 15.21075134 107.20280212 15.21090698 106.04782104 C15.22122955 104.83321198 15.23155212 103.61860291 15.2421875 102.3671875 C15.2450174 101.12703888 15.24784729 99.88689026 15.25076294 98.60916138 C15.26007826 95.31125367 15.2780511 92.01354028 15.3001709 88.71569824 C15.32062526 85.3508543 15.32976377 81.98598193 15.33984375 78.62109375 C15.36193481 72.01815277 15.39543517 65.41534229 15.4375 58.8125 C14.75478027 58.83207764 14.07206055 58.85165527 13.36865234 58.87182617 C12.47098145 58.88705322 11.57331055 58.90228027 10.6484375 58.91796875 C9.75946777 58.93754639 8.87049805 58.95712402 7.95458984 58.97729492 C2.9939222 58.65251794 0.3086654 55.77784544 -2.875 52.25 C-5.16835873 48.93737072 -5.68858776 46.4117173 -5.72363281 42.48046875 C-5.73324036 41.60946533 -5.7428479 40.73846191 -5.75274658 39.84106445 C-5.75699646 38.90351318 -5.76124634 37.96596191 -5.765625 37 C-5.77417511 35.55210083 -5.77417511 35.55210083 -5.78289795 34.07495117 C-5.79234285 32.03402807 -5.79887991 29.99308975 -5.80273438 27.95214844 C-5.81246236 24.82460159 -5.84349966 21.69770573 -5.875 18.5703125 C-5.88152793 16.58854557 -5.88677922 14.60677395 -5.890625 12.625 C-5.9029718 11.68744873 -5.9153186 10.74989746 -5.92803955 9.78393555 C-5.92503845 8.91293213 -5.92203735 8.04192871 -5.91894531 7.14453125 C-5.92259094 6.37858643 -5.92623657 5.6126416 -5.92999268 4.82348633 C-5.26919412 1.20747725 -3.6386095 -0.26623972 0 0 Z " fill="#D0AC38" transform="translate(29.5625,18.1875)"/>
<path d="M0 0 C0 19.14 0 38.28 0 58 C-4.29 58 -8.58 58 -13 58 C-16.37615802 54.62384198 -16.37615802 54.62384198 -16.40405273 51.00683594 C-16.41673691 50.20880554 -16.42942108 49.41077515 -16.44248962 48.58856201 C-16.43955399 47.7291803 -16.43661835 46.86979858 -16.43359375 45.984375 C-16.4388356 45.09518372 -16.44407745 44.20599243 -16.44947815 43.28985596 C-16.455903 41.40695235 -16.45455536 39.52400862 -16.44604492 37.64111328 C-16.4375719 34.77432635 -16.46622878 31.90955687 -16.49804688 29.04296875 C-16.49966004 27.21093809 -16.49907916 25.37890393 -16.49609375 23.546875 C-16.50732773 22.69559021 -16.51856171 21.84430542 -16.53013611 20.96722412 C-16.45294734 14.29708701 -14.80336334 10.02642666 -10.18359375 5.0390625 C-9.60738281 4.57242188 -9.03117187 4.10578125 -8.4375 3.625 C-7.56931641 2.90183594 -7.56931641 2.90183594 -6.68359375 2.1640625 C-4.5107447 0.66172139 -2.6495342 0 0 0 Z " fill="#58637A" transform="translate(120,30)"/>
</svg>
